<?xml version="1.0" encoding="utf-8"?>
<!-- Generator: Adobe Illustrator 24.0.3, SVG Export Plug-In . SVG Version: 6.00 Build 0)  -->
<svg version="1.1" id="Layer_1" xmlns="http://www.w3.org/2000/svg" xmlns:xlink="http://www.w3.org/1999/xlink" x="0px" y="0px"
	 viewBox="0 0 48.03 48" style="enable-background:new 0 0 48.03 48;" xml:space="preserve">
<style type="text/css">
	.st0{fill:url(#SVGID_1_);}
	.st1{fill:url(#SVGID_2_);}
</style>
<g>
	
		<linearGradient id="SVGID_1_" gradientUnits="userSpaceOnUse" x1="24.015" y1="46.95" x2="24.015" y2="5.1" gradientTransform="matrix(1 0 0 -1 0 50)">
		<stop  offset="0" style="stop-color:#892C6E"/>
		<stop  offset="1" style="stop-color:#C33364"/>
	</linearGradient>
	<path class="st0" d="M48.03,24.08C44,31.04,39.97,38,35.97,44.9c-8.04,0-16.02,0-24.02,0C7.95,37.87,3.98,30.89,0,23.89
		C4.03,16.92,8.06,9.96,12.05,3.05c8.04,0,16.02,0,24.04,0C40.08,10.08,44.05,17.07,48.03,24.08z M46.76,24.08
		c-3.78-6.65-7.53-13.24-11.31-19.89c-7.56,0-15.13,0-22.76,0C8.9,10.72,5.09,17.31,1.27,23.9c3.77,6.64,7.53,13.26,11.31,19.91
		c7.6,0,15.14,0,22.76,0C39.13,37.28,42.93,30.69,46.76,24.08z"/>
</g>
<g>
	
		<linearGradient id="SVGID_2_" gradientUnits="userSpaceOnUse" x1="24.01" y1="50" x2="24.01" y2="2" gradientTransform="matrix(1 0 0 -1 0 50)">
		<stop  offset="0" style="stop-color:#892C6E"/>
		<stop  offset="1" style="stop-color:#C33364"/>
	</linearGradient>
	<path class="st1" d="M3.07,11.94C10.12,7.94,17.1,3.98,24.11,0c6.96,4.03,13.92,8.06,20.84,12.07c0,8,0,15.99,0,23.99
		c-7.02,3.99-14,7.95-21.03,11.94c-6.94-4.01-13.91-8.03-20.85-12.04C3.07,27.95,3.07,19.98,3.07,11.94z"/>
</g>
</svg>
